<svg id="Layer_1" data-name="Layer 1" xmlns="http://www.w3.org/2000/svg" viewBox="0 0 971 288"><defs><style>.cls-1,.cls-2{fill:none;}.cls-2{stroke:#fff;stroke-miterlimit:10;stroke-width:14px;}.cls-3{fill:#fff;}</style></defs><title>sitechef</title><circle class="cls-1" cx="113.5" cy="113.5" r="113.5"/><path class="cls-2" d="M329,595a12,12,0,0,1-12-12V336a12,12,0,0,1,12-12H741a12,12,0,0,1,12,12V583a12,12,0,0,1-12,12" transform="translate(211 -314)"/><path class="cls-3" d="M641.54,359c9.66,0,9.67-15,0-15s-9.66,15,0,15Z" transform="translate(211 -314)"/><path class="cls-3" d="M672.54,359c9.66,0,9.67-15,0-15s-9.66,15,0,15Z" transform="translate(211 -314)"/><path class="cls-3" d="M703.54,359c9.66,0,9.67-15,0-15s-9.66,15,0,15Z" transform="translate(211 -314)"/><path class="cls-2" d="M741,595H521V525.52h.19a44.56,44.56,0,1,0-9-88.21,44.57,44.57,0,0,0-85.77.22,44.56,44.56,0,1,0-9.1,88.18V595H329" transform="translate(211 -314)"/></svg>